<svg width="32" height="32" viewBox="0 0 32 32" fill="none" xmlns="http://www.w3.org/2000/svg">
<g clip-path="url(#clip0_2023_950)">
<path d="M32.0625 28.8744C32.0625 29.9362 32.0625 30.9981 32.0625 32.0609C21.4029 32.0609 10.7434 32.0609 0.0625 32.0609C0.0625 28.7481 0.0625 25.4343 0.0796405 22.0703C0.127377 22.0695 0.166283 22.1156 0.18731 22.1687C0.456429 22.8487 0.939326 23.3222 1.67135 23.3595C2.73653 23.4136 3.80682 23.3674 4.90392 23.3684C5.95527 23.3699 6.97764 23.3669 8.02899 23.3684C8.96321 23.3729 9.86846 23.3729 10.806 23.3729C10.5074 23.9824 10.2276 24.5534 9.93808 25.1449C9.78244 25.4552 9.63195 25.743 9.49266 26.0361C9.41819 26.1927 9.32052 26.259 9.13557 26.2545C8.55428 26.2404 7.97217 26.2397 7.39097 26.2555C7.22857 26.2599 7.06822 26.3395 6.88344 26.382C6.25166 26.7164 5.95264 27.2711 6.06921 27.9536C6.17829 28.5923 6.69789 29.0993 7.29684 29.114C8.55128 29.1447 9.80715 29.1174 11.0914 29.1185C12.8094 29.12 14.4985 29.117 16.2165 29.1184C18.1389 29.1234 20.0324 29.127 21.9259 29.119C22.099 29.1182 22.2719 29.0427 22.4672 29.0004C23.1231 28.6841 23.4689 28.0009 23.3002 27.3539C23.1234 26.6755 22.5013 26.2008 21.8542 26.2442C21.4407 26.2719 21.0238 26.2494 20.6085 26.2494C19.9575 26.2493 19.9575 26.2493 19.7058 25.624C20.1005 25.698 20.4834 25.7951 20.8723 25.837C21.5017 25.9048 22.1349 25.9317 22.7818 25.7508C23.3822 25.5592 23.9678 25.396 24.5254 25.1651C24.7621 25.0671 24.8772 25.0862 25.0481 25.2587C26.4537 26.6777 27.8882 28.0686 29.2739 29.5065C30.0341 30.2953 31.5867 30.1441 31.942 28.9587C31.953 28.9218 32.021 28.9021 32.0625 28.8744Z" fill="white"/>
<path d="M0.0625 3.43678C0.0625 2.31226 0.0625 1.18774 0.0625 0.0628617C10.7241 0.0625 21.3857 0.0625 32.0625 0.0625C32.0625 9.35481 32.0625 18.6479 32.0457 27.9912C31.8742 27.796 31.7195 27.5503 31.5568 27.2856C30.2651 25.9831 28.9815 24.6998 27.6796 23.3982C28.3816 23.254 28.8864 22.9128 29.1536 22.2386C29.1998 22.1169 29.2463 22.0083 29.2465 21.8997C29.2486 20.8079 29.243 19.7161 29.244 18.5953C29.2455 17.4398 29.2426 16.3133 29.244 15.1578C29.2455 13.9606 29.2426 12.7924 29.244 11.5953C29.2455 10.4189 29.2426 9.27161 29.2441 8.09527C29.2455 7.08557 29.2425 6.10487 29.2439 5.09518C29.2489 4.62973 29.2386 4.19293 29.2523 3.75688C29.2753 3.01983 28.5185 2.15082 27.7093 2.13265C26.4735 2.10491 25.2366 2.13136 23.9712 2.13024C22.1698 2.12868 20.3974 2.1317 18.5961 2.1302C16.6281 2.1287 14.6891 2.13171 12.7211 2.13021C10.7114 2.12871 8.73074 2.13171 6.72107 2.13021C5.0479 2.12524 3.40359 2.1144 1.75968 2.13515C1.50469 2.13837 1.25153 2.28606 0.975916 2.37076C0.600657 2.61234 0.339306 2.92335 0.185619 3.32445C0.167855 3.37081 0.104642 3.39976 0.0625 3.43678Z" fill="white"/>
<path d="M31.5648 27.3051C31.7195 27.5508 31.8742 27.7964 32.0457 28.0209C32.0625 28.272 32.0625 28.5443 32.0625 28.8457C32.021 28.9024 31.953 28.9222 31.942 28.959C31.5868 30.1444 30.0341 30.2957 29.2739 29.5069C27.8882 28.0689 26.4537 26.678 25.0481 25.259C24.8772 25.0865 24.7621 25.0675 24.5254 25.1655C23.9678 25.3963 23.3822 25.5595 22.7619 25.7415C22.3275 25.5176 21.9369 25.3062 21.553 25.0832C21.4799 25.0407 21.4336 24.9523 21.4037 24.8806C22.5294 24.8874 23.5524 24.6487 24.4701 24.0158C24.8184 23.7757 25.0363 23.8189 25.3395 24.1218C26.4364 25.2179 27.5329 26.3143 28.6296 27.4105C29.1006 27.8813 29.5718 28.352 30.0429 28.8228C30.2492 29.0289 30.4842 29.0818 30.7339 28.9186C31.0883 28.6869 31.114 28.276 30.8004 27.9574C30.1368 27.2833 29.4704 26.612 28.8285 25.9406C28.9013 25.9557 28.9562 25.9604 28.9996 25.9852C29.7662 26.4227 30.5297 26.8656 31.2996 27.2972C31.368 27.3356 31.4755 27.3041 31.5648 27.3051Z" fill="#04DDBC"/>
<path d="M4.87493 23.3642C3.80682 23.3676 2.73654 23.4139 1.67136 23.3597C0.93933 23.3225 0.456432 22.8489 0.187314 22.1689C0.166287 22.1158 0.127381 22.0698 0.0796441 22.0413C0.0625036 21.3316 0.0625036 20.6011 0.0877687 19.8418C0.295144 19.871 0.47695 19.93 0.659456 19.9867C0.811695 20.0341 0.964754 20.0788 1.12163 20.1537C1.12591 20.6395 1.12746 21.0962 1.12575 21.553C1.12388 22.0511 1.43973 22.3705 1.94364 22.3745C2.48324 22.3787 3.02285 22.3815 3.56795 22.4053C3.80541 22.5892 4.0387 22.7509 4.26898 22.9167C4.4727 23.0635 4.67308 23.2148 4.87493 23.3642Z" fill="#05F1A6"/>
<path d="M0.0625 15.9995C0.0625001 14.8732 0.0625001 13.7469 0.0867192 12.5918C0.445376 12.7502 0.779813 12.9374 1.11875 13.1536C1.12074 15.4137 1.11823 17.6448 1.10248 19.8755C1.08925 19.8752 1.06277 19.8745 1.06269 19.8452C1.06241 18.8081 1.06589 17.8002 1.05733 16.7924C1.05628 16.6688 1.02899 16.4831 0.948217 16.4339C0.668633 16.2634 0.360047 16.1405 0.0625 15.9995Z" fill="#04E3B5"/>
<path d="M0.0625 16.0293C0.360047 16.141 0.668633 16.2639 0.948217 16.4343C1.02899 16.4836 1.05628 16.6693 1.05733 16.7928C1.06589 17.8006 1.06241 18.8085 1.07056 19.857C1.08994 19.9123 1.10292 19.9254 1.12166 19.9603C1.12307 20.0308 1.12026 20.0779 1.11745 20.125C0.964751 20.0792 0.811691 20.0345 0.659452 19.9871C0.476946 19.9304 0.29514 19.8714 0.0877652 19.8129C0.0625001 18.5612 0.0625001 17.3099 0.0625 16.0293Z" fill="#05EAAD"/>
<path d="M0.0625 9.31305C0.0624999 8.10341 0.0624999 6.89377 0.0856763 5.65625C0.212675 5.6723 0.317727 5.71357 0.420066 5.76073C0.634593 5.85957 0.847692 5.96152 1.06173 6.09158C1.06217 6.95944 1.0602 7.79791 1.06464 8.63636C1.06528 8.75772 1.09666 8.87892 1.11833 9.02829C1.11985 9.24579 1.11685 9.4352 1.08874 9.62474C0.91987 9.5858 0.774658 9.55131 0.632689 9.50654C0.441319 9.44619 0.252445 9.37792 0.0625 9.31305Z" fill="#04D7C3"/>
<path d="M1.06138 6.06226C0.847692 5.96159 0.634593 5.85964 0.420066 5.76079C0.317727 5.71364 0.212675 5.67237 0.0856763 5.62702C0.0625 4.91598 0.0625 4.20634 0.0625 3.46741C0.104642 3.4011 0.167855 3.37215 0.185619 3.32579C0.339306 2.92469 0.600657 2.61369 0.982661 2.39258C1.13123 2.50249 1.25363 2.59307 1.37112 2.68963C1.54097 2.82921 1.70726 2.97313 1.85121 3.1197C1.30457 3.25178 1.12634 3.47916 1.12604 4.00551C1.12578 4.48338 1.11923 4.96125 1.10349 5.46106C1.08148 5.67608 1.07143 5.86917 1.06138 6.06226Z" fill="#04D0CB"/>
<path d="M0.0625 9.3418C0.252445 9.37737 0.441319 9.44564 0.632689 9.50599C0.774658 9.55077 0.91987 9.58526 1.09329 9.65328C1.12005 10.8298 1.11715 11.9774 1.11425 13.125C0.779813 12.9378 0.445376 12.7506 0.0867191 12.563C0.0624999 11.4987 0.0624999 10.4349 0.0625 9.3418Z" fill="#04DDBC"/>
<path d="M21.375 24.8852C21.4336 24.9524 21.4799 25.0408 21.553 25.0832C21.9369 25.3062 22.3275 25.5176 22.7358 25.7427C22.1349 25.9321 21.5017 25.9052 20.8723 25.8374C20.4834 25.7955 20.1005 25.6984 19.7058 25.6244C19.9575 26.2497 19.9575 26.2497 20.6085 26.2498C21.0238 26.2498 21.4407 26.2723 21.8542 26.2446C22.5013 26.2012 23.1233 26.6759 23.3002 27.3543C23.4689 28.0013 23.1231 28.6845 22.4447 28.996C22.0076 28.7803 21.6123 28.5729 21.2256 28.3507C21.1537 28.3094 21.116 28.2085 21.0913 28.1307C21.3494 28.1257 21.5785 28.1261 21.8077 28.1245C22.1126 28.1225 22.3188 27.9375 22.3125 27.6737C22.3067 27.4341 22.0924 27.2515 21.8117 27.25C20.9995 27.2459 20.1872 27.2429 19.3659 27.2201C19.2571 27.1542 19.1543 27.1132 19.0582 27.0601C18.5795 26.7952 18.1026 26.5272 17.654 26.2557C18.0664 26.2512 18.4498 26.2512 18.8712 26.2512C18.646 25.7965 18.439 25.3671 18.2191 24.9444C18.1786 24.8666 18.0863 24.8156 18.0174 24.7529C17.6181 24.3895 17.2089 24.0363 16.8234 23.6589C16.6379 23.4773 16.4688 23.3623 16.185 23.3663C14.9986 23.383 13.8117 23.3678 12.6175 23.3453C12.3001 23.1223 11.983 22.9282 11.684 22.7093C11.579 22.6324 11.5184 22.495 11.4665 22.3807C12.968 22.3762 14.4406 22.3762 15.9383 22.3762C15.9101 22.2768 15.8889 22.202 15.89 22.1309C16.1088 22.2429 16.3004 22.3617 16.5029 22.4574C16.8129 22.604 17.1303 22.7347 17.464 22.8805C17.7279 23.1338 17.9608 23.3916 18.2189 23.6212C19.1174 24.4205 20.1888 24.7988 21.375 24.8852Z" fill="#04E4B4"/>
<path d="M11.4375 22.3857C11.5184 22.4955 11.579 22.6329 11.684 22.7098C11.983 22.9287 12.3001 23.1228 12.5892 23.3502C12.4961 23.3743 12.4217 23.386 12.3517 23.3733C12.0251 23.3143 11.8715 23.4642 11.7379 23.7603C11.4606 24.3749 11.1291 24.9651 10.7976 25.5607C10.4995 25.4125 10.2237 25.2689 9.94789 25.1253C10.2276 24.5543 10.5074 23.9833 10.806 23.3738C9.86845 23.3738 8.96321 23.3738 8.02326 23.3492C7.80472 23.1955 7.62191 23.0651 7.43681 22.9379C7.16706 22.7526 6.89567 22.5697 6.65396 22.3813C8.26779 22.3798 9.85263 22.3827 11.4375 22.3857Z" fill="#05EAAD"/>
<path d="M21.0625 28.1357C21.116 28.2091 21.1537 28.3099 21.2256 28.3513C21.6123 28.5735 22.0076 28.7809 22.4224 28.9982C22.2719 29.0437 22.099 29.1192 21.9259 29.1199C20.0324 29.128 18.1389 29.1244 16.2111 29.0991C15.9485 28.9025 15.72 28.7311 15.4922 28.5587C15.3068 28.4184 15.1223 28.2768 14.9665 28.1313C17.0178 28.1297 19.0401 28.1327 21.0625 28.1357Z" fill="#05EAAD"/>
<path d="M9.93808 25.1445C10.2237 25.2677 10.4995 25.4112 10.794 25.5825C10.7225 25.8085 10.6323 26.0069 10.5175 26.2594C11.0103 26.2594 11.4426 26.2594 11.8807 26.2796C12.1266 26.457 12.3749 26.6033 12.6042 26.7749C12.7896 26.9136 12.9522 27.0829 13.0959 27.243C11.4821 27.2445 9.89729 27.2416 8.30359 27.2195C8.20614 27.1538 8.11521 27.111 8.02937 27.0598C7.65441 26.836 7.28094 26.6096 6.90692 26.3842C7.06821 26.3392 7.22856 26.2596 7.39096 26.2552C7.97216 26.2394 8.55427 26.2401 9.13556 26.2542C9.32051 26.2587 9.41818 26.1924 9.49265 26.0357C9.63194 25.7427 9.78243 25.4549 9.93808 25.1445Z" fill="#05F0A6"/>
<path d="M6.88346 26.3828C7.28096 26.6108 7.65443 26.8371 8.02939 27.0609C8.11523 27.1121 8.20616 27.1549 8.27474 27.2251C8.02557 27.2491 7.79641 27.2488 7.56726 27.2503C7.26649 27.2523 7.05625 27.4409 7.06257 27.7012C7.0684 27.941 7.28247 28.1235 7.56322 28.1249C8.37547 28.129 9.18772 28.1321 10.0018 28.1576C10.166 28.3266 10.3269 28.4752 10.4912 28.6201C10.6801 28.7867 10.8719 28.95 11.0624 29.1148C9.80716 29.1182 8.5513 29.1455 7.29685 29.1148C6.6979 29.1001 6.1783 28.5931 6.06922 27.9544C5.95265 27.2718 6.25167 26.7172 6.88346 26.3828Z" fill="#05F5A0"/>
<path d="M11.0914 29.1185C10.8719 28.9493 10.6801 28.786 10.4912 28.6193C10.3269 28.4745 10.166 28.3258 10.0307 28.1523C11.6844 28.1288 13.311 28.1318 14.9375 28.1348C15.1223 28.2759 15.3068 28.4174 15.4921 28.5578C15.7199 28.7302 15.9485 28.9016 16.1821 29.0937C14.4985 29.117 12.8094 29.12 11.0914 29.1185Z" fill="#05F0A6"/>
<path d="M6.62496 22.3849C6.89566 22.5688 7.16705 22.7518 7.4368 22.9371C7.6219 23.0642 7.80471 23.1947 7.99426 23.3438C6.97762 23.367 5.95526 23.37 4.9039 23.3685C4.67306 23.2147 4.47268 23.0633 4.26896 22.9166C4.03868 22.7507 3.8054 22.589 3.59692 22.4007C4.62194 22.3789 5.62345 22.3819 6.62496 22.3849Z" fill="#05EDA9"/>
<path d="M31.5568 27.2871C31.4755 27.3053 31.368 27.3367 31.2996 27.2984C30.5297 26.8667 29.7662 26.4239 28.9996 25.9863C28.9562 25.9615 28.9013 25.9568 28.8094 25.9336C27.8716 25.0292 26.9784 24.1316 26.0791 23.2402C25.8787 23.0416 25.8445 22.8249 25.9584 22.5821C26.2174 22.0301 26.484 21.4816 26.7624 20.9473C27.0617 21.1013 27.3461 21.2396 27.628 21.4024C27.5135 21.7387 27.4014 22.0505 27.2891 22.3627C27.7606 22.4513 28.0493 22.2018 28.2808 21.8188C28.5783 21.9673 28.8553 22.1103 29.1323 22.2533C28.8864 22.9143 28.3816 23.2555 27.6796 23.3998C28.9815 24.7013 30.2651 25.9847 31.5568 27.2871Z" fill="#04D7C3"/>
<path d="M12.7501 2.13496C14.6891 2.13195 16.6281 2.12893 18.6038 2.14968C18.7873 2.26439 18.9321 2.35907 19.0816 2.44558C19.47 2.67037 19.8604 2.89157 20.2211 3.11871C18.1073 3.12015 16.0224 3.11709 13.9357 3.09214C13.7327 2.90385 13.5343 2.73398 13.3296 2.57204C13.1399 2.42194 12.9435 2.28031 12.7501 2.13496Z" fill="#03BDE1"/>
<path d="M12.7211 2.13126C12.9435 2.28113 13.1399 2.42275 13.3296 2.57285C13.5343 2.73479 13.7327 2.90466 13.9067 3.09747C11.9406 3.12088 10.0016 3.1179 8.05675 3.09471C7.71565 2.85937 7.37623 2.65024 7.04731 2.42574C6.93471 2.34889 6.84839 2.23353 6.75006 2.13576C8.73074 2.13276 10.7114 2.12975 12.7211 2.13126Z" fill="#04C3DA"/>
<path d="M6.72107 2.13034C6.84838 2.23261 6.9347 2.34797 7.0473 2.42483C7.37623 2.64932 7.71564 2.85845 8.02776 3.0983C5.9614 3.11999 3.91823 3.11699 1.87507 3.11399C1.70726 2.97192 1.54097 2.828 1.37112 2.68842C1.25363 2.59186 1.13123 2.50128 1.00427 2.38755C1.25153 2.28619 1.50469 2.1385 1.75968 2.13528C3.40359 2.11454 5.0479 2.12537 6.72107 2.13034Z" fill="#04CAD2"/>
<path d="M24.0002 2.13579C25.2366 2.13234 26.4735 2.10589 27.7093 2.13363C28.5185 2.1518 29.2753 3.02081 29.2523 3.75786C29.2386 4.19391 29.2489 4.63071 29.2214 5.09447C29.0839 5.07147 28.973 5.02187 28.8628 4.97072C28.6609 4.87697 28.4593 4.78232 28.2534 4.65904C28.2489 4.412 28.2473 4.19396 28.2486 3.97594C28.2517 3.43441 27.9452 3.12729 27.3983 3.12499C26.6405 3.1218 25.8828 3.11818 25.1244 3.09216C25.0205 2.95297 24.9314 2.81842 24.811 2.72346C24.5492 2.51686 24.2714 2.33045 24.0002 2.13579Z" fill="#03B3EF"/>
<path d="M23.9712 2.1312C24.2714 2.33044 24.5492 2.51685 24.811 2.72345C24.9314 2.81841 25.0205 2.95296 25.0954 3.09671C23.4615 3.12088 21.8558 3.1179 20.2501 3.11493C19.8604 2.8923 19.47 2.6711 19.0816 2.44631C18.9321 2.3598 18.7873 2.26513 18.6328 2.15493C20.3974 2.13267 22.1698 2.12965 23.9712 2.1312Z" fill="#03B7E8"/>
<path d="M29.1536 22.2396C28.8553 22.1097 28.5783 21.9667 28.2764 21.7893C28.2556 20.5658 28.2596 19.3767 28.2861 18.1895C28.6189 18.336 28.9293 18.4806 29.2396 18.6253C29.243 19.7171 29.2485 20.8089 29.2465 21.9007C29.2463 22.0093 29.1998 22.1179 29.1536 22.2396Z" fill="#04D0CB"/>
<path d="M29.2441 18.5958C28.9293 18.4801 28.619 18.3355 28.2814 18.1601C28.2568 17.0446 28.2594 15.9599 28.272 14.8657C28.2941 14.8425 28.3049 14.8278 28.3383 14.8125C28.4754 14.8506 28.5921 14.8798 28.7006 14.9276C28.883 15.008 29.0602 15.1001 29.2396 15.1873C29.2426 16.3138 29.2455 17.4403 29.2441 18.5958Z" fill="#04CAD2"/>
<path d="M29.244 15.1594C29.0602 15.1012 28.883 15.009 28.7006 14.9287C28.5921 14.8809 28.4754 14.8517 28.3379 14.7843C28.3138 13.5864 28.3143 12.4183 28.3377 11.252C28.6537 11.3777 28.9467 11.5018 29.2396 11.6259C29.2426 12.794 29.2455 13.9622 29.244 15.1594Z" fill="#04C3DA"/>
<path d="M29.244 11.5967C28.9466 11.5016 28.6537 11.3776 28.3372 11.2226C28.3129 10.8583 28.3121 10.5248 28.3117 10.1617C28.313 9.31775 28.3138 8.50337 28.3363 7.69336C28.6519 7.84038 28.9457 7.98304 29.2396 8.1257C29.2426 9.27304 29.2455 10.4204 29.244 11.5967Z" fill="#03BDE1"/>
<path d="M29.2441 8.09571C28.9457 7.98205 28.6519 7.83939 28.3357 7.66299C28.3132 7.47455 28.3176 7.31966 28.3117 7.16517C28.2961 6.75588 28.2759 6.34676 28.2533 5.90856C28.2519 5.48219 28.2547 5.08485 28.2576 4.6875C28.4593 4.78178 28.6609 4.87644 28.8628 4.97018C28.973 5.02133 29.0839 5.07093 29.217 5.12292C29.2425 6.10531 29.2455 7.08601 29.2441 8.09571Z" fill="#03B7E8"/>
<path d="M26.7475 20.9312C26.484 21.4812 26.2175 22.0297 25.9584 22.5817C25.8445 22.8245 25.8788 23.0412 26.0791 23.2398C26.9784 24.1312 27.8716 25.0288 28.7861 25.9322C29.4704 26.6127 30.1368 27.2841 30.8004 27.9582C31.114 28.2767 31.0883 28.6876 30.7339 28.9193C30.4842 29.0825 30.2492 29.0297 30.0429 28.8235C29.5718 28.3527 29.1006 27.8821 28.6295 27.4112C27.5329 26.315 26.4364 25.2186 25.3395 24.1226C25.0363 23.8196 24.8184 23.7764 24.4701 24.0166C23.5523 24.6494 22.5293 24.8881 21.4037 24.8814C20.1888 24.7995 19.1174 24.4212 18.2189 23.6219C17.9608 23.3923 17.7279 23.1345 17.455 22.8612C17.2853 22.6225 17.1253 22.4221 17.0055 22.2C16.4335 21.1405 16.1817 20.017 16.3691 18.7876C16.5633 17.6888 17.0399 16.756 17.7758 15.9328C18.3229 15.3948 18.9167 14.9563 19.6203 14.6941C20.0307 14.5412 20.4605 14.4399 20.9104 14.3143C21.1891 14.3131 21.439 14.3144 21.6888 14.3126C22.7403 14.3053 23.6883 14.6209 24.5556 15.2094C25.3346 15.7381 25.9146 16.4379 26.3713 17.2763C26.6893 18.0097 26.9222 18.7399 26.8727 19.529C26.8434 19.9972 26.79 20.4639 26.7475 20.9312ZM17.0015 19.054C16.9801 19.2045 16.9383 19.3555 16.9409 19.5057C16.9564 20.3951 17.1538 21.239 17.6269 22.0018C18.1387 22.8268 18.8211 23.4587 19.7302 23.8337C20.5163 24.158 21.3127 24.3197 22.1741 24.1975C23.0198 24.0776 23.7823 23.806 24.4799 23.2397C24.5458 23.1942 24.6167 23.1545 24.6768 23.1023C25.2715 22.5853 25.6796 21.9321 25.9822 21.2182C26.1006 20.9391 26.1152 20.616 26.1878 20.2604C26.1879 19.8027 26.2444 19.3366 26.1783 18.8887C25.9052 17.0389 24.8354 15.8238 23.0983 15.184C22.2194 14.8603 21.3104 14.8503 20.4166 15.0837C19.7797 15.25 19.1672 15.5105 18.6448 16.0113C17.6798 16.778 17.1477 17.7812 17.0015 19.054Z" fill="white"/>
<path d="M28.2534 4.6593C28.2547 5.08564 28.2519 5.48299 28.2491 5.93838C28.2525 7.39347 28.2557 8.79053 28.2552 10.2167C28.255 11.7891 28.2585 13.3325 28.2621 14.8759C28.2594 15.9606 28.2568 17.0453 28.2589 18.1589C28.2596 19.3769 28.2556 20.566 28.256 21.7841C28.0493 22.2015 27.7607 22.451 27.2891 22.3624C27.4014 22.0501 27.5135 21.7384 27.649 21.3889C27.9407 20.1929 27.9854 19.0344 27.6708 17.8515C27.6316 17.6402 27.5696 17.4532 27.5671 17.2654C27.5539 16.2606 27.5555 15.2555 27.5565 14.2215C27.558 12.9619 27.555 11.7312 27.5565 10.4715C27.558 9.39933 27.5551 8.35613 27.5566 7.28394C27.5615 6.32842 27.5626 5.40188 27.5623 4.47534C27.5622 4.04861 27.353 3.81585 26.9337 3.81537C25.1225 3.8133 23.3113 3.81987 21.4711 3.81882C19.5447 3.81733 17.6474 3.82031 15.721 3.81883C13.6072 3.81728 11.5224 3.82021 9.40862 3.81865C7.37809 3.81727 5.37655 3.82037 3.34607 3.81901C3.01598 3.81412 2.7145 3.80433 2.4138 3.81562C2.02819 3.83009 1.8158 4.03005 1.81449 4.38344C1.81164 5.1516 1.81947 5.9198 1.81845 6.71698C1.81695 8.03914 1.81993 9.33231 1.81845 10.6545C1.81699 11.9766 1.81998 13.2698 1.81852 14.592C1.81701 15.7267 1.81996 16.8324 1.81846 17.9671C1.81349 19.0163 1.81196 20.0366 1.81296 21.0569C1.81334 21.4416 2.02663 21.6835 2.40956 21.6846C4.08549 21.6893 5.76146 21.6818 7.46531 21.6831C7.66243 21.6843 7.83166 21.6812 8.01601 21.6815C8.03113 21.685 8.06121 21.6773 8.09028 21.6818C8.99622 21.6833 9.87309 21.6804 10.7789 21.6819C12.3928 21.6835 13.9777 21.6805 15.5854 21.6825C15.6948 21.8343 15.7812 21.9811 15.8677 22.128C15.8889 22.2028 15.9101 22.2776 15.9383 22.377C14.4406 22.377 12.968 22.377 11.4665 22.3815C9.85263 22.383 8.2678 22.38 6.65397 22.3815C5.62347 22.383 4.62195 22.38 3.59145 22.3814C3.02285 22.3825 2.48324 22.3797 1.94363 22.3754C1.43973 22.3714 1.12388 22.052 1.12575 21.554C1.12746 21.0972 1.12591 20.6404 1.12162 20.1546C1.12026 20.0784 1.12307 20.0313 1.1251 19.9455C1.12146 19.8969 1.11859 19.8869 1.11572 19.8769C1.11823 17.6457 1.12074 15.4146 1.11875 13.1545C1.11715 11.9779 1.12005 10.8303 1.1184 9.65365C1.11685 9.43516 1.11985 9.24575 1.12288 8.99926C1.12042 7.77446 1.11794 6.60674 1.11545 5.43901C1.11923 4.96115 1.12578 4.48328 1.12604 4.00541C1.12634 3.47905 1.30457 3.25167 1.85122 3.1196C3.91824 3.1181 5.9614 3.1211 8.03356 3.1196C10.0016 3.11809 11.9406 3.12107 13.9086 3.11954C16.0224 3.11809 18.1072 3.12116 20.2211 3.11971C21.8558 3.11818 23.4615 3.12115 25.0961 3.11957C25.8828 3.11844 26.6405 3.12206 27.3983 3.12525C27.9452 3.12755 28.2517 3.43467 28.2486 3.9762C28.2473 4.19422 28.2489 4.41226 28.2534 4.6593Z" fill="white"/>
<path d="M1.10249 19.8752C1.11859 19.8855 1.12146 19.8956 1.12089 19.9209C1.10292 19.9246 1.08995 19.9115 1.07065 19.8855C1.06278 19.8741 1.08925 19.8748 1.10249 19.8752Z" fill="#05F1A6"/>
<path d="M1.1035 5.46094C1.11795 6.60672 1.12043 7.77444 1.11837 8.97115C1.09667 8.87886 1.06529 8.75767 1.06465 8.6363C1.06021 7.79786 1.06219 6.95938 1.06174 6.09153C1.07144 5.86905 1.08149 5.67597 1.1035 5.46094Z" fill="#04DDBC"/>
<path d="M11.8749 26.2614C11.4426 26.2614 11.0102 26.2614 10.5175 26.2614C10.6323 26.0088 10.7225 25.8104 10.8163 25.589C11.1291 24.9657 11.4606 24.3756 11.7379 23.761C11.8715 23.4648 12.0251 23.315 12.3517 23.374C12.4217 23.3867 12.4961 23.375 12.5967 23.37C13.8117 23.369 14.9986 23.3842 16.185 23.3675C16.4687 23.3635 16.6379 23.4785 16.8234 23.6601C17.2089 24.0374 17.6181 24.3907 18.0174 24.7541C18.0863 24.8168 18.1786 24.8678 18.2191 24.9456C18.439 25.3683 18.646 25.7977 18.8711 26.2524C18.4498 26.2524 18.0664 26.2524 17.625 26.2524C15.6697 26.2554 13.7723 26.2584 11.8749 26.2614Z" fill="white"/>
<path d="M14.9665 28.1315C13.311 28.133 11.6845 28.13 10.029 28.1315C9.18772 28.1325 8.37547 28.1295 7.56322 28.1254C7.28248 28.1239 7.0684 27.9414 7.06258 27.7017C7.05625 27.4413 7.26649 27.2528 7.56726 27.2508C7.79641 27.2493 8.02557 27.2496 8.28361 27.2446C9.89731 27.2431 11.4821 27.2461 13.125 27.2491C15.247 27.2462 17.311 27.2432 19.375 27.2402C20.1872 27.2437 20.9995 27.2467 21.8117 27.2509C22.0924 27.2523 22.3067 27.435 22.3125 27.6746C22.3188 27.9384 22.1126 28.1233 21.8077 28.1254C21.5785 28.1269 21.3494 28.1265 21.0914 28.1315C19.0401 28.133 17.0178 28.13 14.9665 28.1315Z" fill="white"/>
<path d="M15.89 22.132C15.7812 21.9815 15.6948 21.8346 15.5771 21.663C15.1288 21.4228 14.7073 21.2152 14.2974 20.9869C14.1809 20.922 14.0982 20.7965 14.029 20.6943C14.4918 20.6898 14.9257 20.6898 15.3774 20.6898C15.3696 20.5655 15.3641 20.4786 15.357 20.3654C14.4316 20.3654 13.5283 20.3654 12.6176 20.3463C12.3694 20.1684 12.1223 20.0183 11.8901 19.8478C11.7287 19.7292 11.5877 19.5828 11.4665 19.4443C12.7646 19.4398 14.0337 19.4398 15.2635 19.4398C15.331 19.0731 15.3895 18.7558 15.4692 18.4434C15.7819 18.57 16.0732 18.6917 16.3646 18.8134C16.1817 20.0174 16.4335 21.141 17.0055 22.2005C17.1254 22.4225 17.2853 22.6229 17.4357 22.8532C17.1303 22.7358 16.8129 22.6051 16.5029 22.4585C16.3004 22.3628 16.1088 22.2441 15.89 22.132Z" fill="#04DEBA"/>
<path d="M19.3659 27.2205C17.311 27.2428 15.2469 27.2458 13.1539 27.2442C12.9522 27.084 12.7896 26.9148 12.6042 26.7761C12.3749 26.6045 12.1266 26.4582 11.8807 26.2808C13.7723 26.2576 15.6697 26.2547 17.596 26.2562C18.1026 26.5276 18.5795 26.7957 19.0582 27.0605C19.1543 27.1137 19.2571 27.1546 19.3659 27.2205Z" fill="#05EAAD"/>
<path d="M27.6755 17.8742C27.9854 19.0331 27.9407 20.1917 27.6514 21.3632C27.3461 21.238 27.0618 21.0997 26.7624 20.9457C26.79 20.4627 26.8434 19.996 26.8727 19.5279C26.9222 18.7387 26.6893 18.0086 26.3932 17.2793C26.8329 17.4648 27.2542 17.6695 27.6755 17.8742Z" fill="#04D0CB"/>
<path d="M28.272 14.8667C28.2585 13.3328 28.2549 11.7895 28.2683 10.2179C28.2851 10.1898 28.3113 10.1914 28.3113 10.1914C28.3121 10.5249 28.3129 10.8584 28.3142 11.221C28.3142 12.4183 28.3138 13.5864 28.3138 14.7837C28.3049 14.8288 28.2941 14.8435 28.272 14.8667Z" fill="#00BFBF"/>
<path d="M28.3117 10.1609C28.3113 10.1905 28.2851 10.1889 28.272 10.1879C28.2557 8.78993 28.2525 7.39287 28.2534 5.9668C28.2759 6.34696 28.2961 6.75608 28.3117 7.16537C28.3176 7.31986 28.3132 7.47475 28.314 7.65883C28.3138 8.50258 28.313 9.31695 28.3117 10.1609Z" fill="#03B3EF"/>
<path d="M27.6708 17.8517C27.2542 17.671 26.8328 17.4662 26.3896 17.2573C25.9146 16.4382 25.3346 15.7384 24.5556 15.2097C23.6883 14.6212 22.7403 14.3056 21.6888 14.3129C21.439 14.3147 21.1891 14.3134 20.8888 14.3095C20.4097 14.0553 19.9772 13.8111 19.5547 13.5509C19.438 13.479 19.3508 13.359 19.27 13.2516C19.5414 13.074 19.791 12.9029 20.045 12.7384C20.5278 12.4256 21.013 12.1167 21.5092 11.8242C21.8081 12.021 22.0951 12.1997 22.373 12.3984C21.9419 12.7036 21.5199 12.9889 21.0979 13.2742C21.1036 13.2949 21.1094 13.3156 21.1152 13.3363C21.6074 13.3363 22.0995 13.3363 22.6353 13.3363C22.6353 13.0985 22.6353 12.8308 22.6566 12.5682C22.9902 12.7157 23.3023 12.8582 23.619 13.0287C23.6694 13.2908 23.4889 13.5902 23.8708 13.7215C24.9486 14.0921 25.7984 14.7894 26.5729 15.704C26.5729 15.0301 26.5729 14.4217 26.5935 13.8187C26.9267 13.9663 27.2394 14.1085 27.552 14.2507C27.5555 15.2557 27.5539 16.2608 27.5671 17.2656C27.5695 17.4534 27.6316 17.6404 27.6708 17.8517Z" fill="#04CAD2"/>
<path d="M19.2501 13.2595C19.3508 13.3574 19.438 13.4773 19.5547 13.5493C19.9772 13.8095 20.4097 14.0537 20.86 14.309C20.4605 14.4386 20.0307 14.5399 19.6203 14.6928C18.9167 14.955 18.3229 15.3935 17.7561 15.9219C17.4353 15.759 17.1533 15.5974 16.8783 15.4158C17.0873 15.1816 17.2893 14.9674 17.4845 14.7604C17.2026 14.7604 16.8953 14.7604 16.6083 14.7604C16.5438 14.8898 16.4854 15.0069 16.4065 15.1186C16.1149 14.9502 15.8439 14.7872 15.5785 14.5985C15.6019 14.2191 15.6197 13.8654 15.6381 13.4991C15.0717 13.4991 14.5635 13.4956 14.0555 13.5019C13.95 13.5032 13.8449 13.5407 13.7185 13.5567C13.3851 13.4092 13.0728 13.2666 12.756 13.099C12.7558 12.7432 12.9918 12.5012 13.3245 12.5001C14.2302 12.4972 15.136 12.4975 16.0417 12.4999C16.3888 12.5009 16.6235 12.7478 16.6248 13.1034C16.6256 13.3165 16.625 13.5295 16.625 13.7491C17.0285 13.7491 17.385 13.7217 17.7356 13.7555C18.2632 13.8064 18.7242 13.6881 19.1261 13.3417C19.1634 13.3096 19.2086 13.2867 19.2501 13.2595Z" fill="#04D1CA"/>
<path d="M18.6846 15.9926C19.1672 15.5095 19.7797 15.249 20.4166 15.0827C21.3104 14.8493 22.2193 14.8593 23.0983 15.183C24.8354 15.8228 25.9052 17.0379 26.1782 18.8877C26.2444 19.3356 26.1879 19.8017 26.1591 20.2852C26.017 20.2663 25.9022 20.225 25.7905 20.1765C25.6127 20.0992 25.437 20.017 25.256 19.9081C25.25 19.63 25.2851 19.3739 25.2406 19.1325C25.0578 18.1406 24.6145 17.2984 23.782 16.6851C22.8869 16.0256 21.8973 15.7619 20.8178 16.041C20.3395 16.1646 19.898 16.4305 19.4348 16.6103C19.3462 16.5054 19.27 16.4125 19.1774 16.3408C19.0185 16.2178 18.8494 16.108 18.6846 15.9926Z" fill="#04D0CC"/>
<path d="M24.4403 23.2577C23.7823 23.8063 23.0198 24.0779 22.1741 24.1979C21.3127 24.3201 20.5163 24.1583 19.7302 23.834C18.8211 23.459 18.1387 22.8272 17.627 22.0021C17.1538 21.2394 16.9564 20.3955 16.9409 19.506C16.9383 19.3559 16.9801 19.2049 17.0286 19.0293C17.3462 19.1281 17.6366 19.2519 17.9315 19.4035C17.9785 19.7757 17.981 20.131 18.0701 20.4629C18.5074 22.0912 19.8809 23.1828 21.5619 23.2437C22.2761 23.2697 22.94 23.0323 23.575 22.6966C23.8734 22.8941 24.1569 23.0759 24.4403 23.2577Z" fill="#04DDBC"/>
<path d="M17.927 19.3748C17.6366 19.251 17.3462 19.1272 17.0331 19.0017C17.1477 17.7807 17.6798 16.7774 18.6647 16.002C18.8494 16.1085 19.0185 16.2183 19.1774 16.3413C19.27 16.413 19.3462 16.5059 19.4265 16.63C18.686 17.2337 18.2415 17.9818 18.0296 18.8762C17.9905 19.0412 17.961 19.2085 17.927 19.3748Z" fill="#04D7C4"/>
<path d="M24.4601 23.2481C24.1569 23.0751 23.8734 22.8933 23.5837 22.6762C23.7404 22.52 23.9156 22.4125 24.064 22.2758C24.749 21.6447 25.108 20.843 25.2605 19.9375C25.4371 20.0176 25.6127 20.0997 25.7905 20.177C25.9022 20.2256 26.0171 20.2669 26.1538 20.312C26.1152 20.6156 26.1006 20.9387 25.9823 21.2178C25.6796 21.9317 25.2715 22.5849 24.6768 23.1018C24.6167 23.1541 24.5458 23.1938 24.4601 23.2481Z" fill="#04D7C4"/>
<path d="M16.8714 15.4375C17.1533 15.5991 17.4353 15.7607 17.7369 15.9318C17.0399 16.7564 16.5633 17.6892 16.3691 18.788C16.0732 18.6917 15.7819 18.57 15.4648 18.4176C15.4924 18.1506 15.5312 17.9097 15.6018 17.6786C15.8585 16.8385 16.2852 16.0922 16.8714 15.4375Z" fill="#04D7C3"/>
<path d="M21.5001 3.82277C23.3113 3.81934 25.1225 3.81278 26.9337 3.81485C27.353 3.81533 27.5622 4.04809 27.5623 4.47482C27.5626 5.40136 27.5616 6.3279 27.5329 7.28293C27.3882 7.27513 27.2683 7.24724 27.1561 7.20067C26.9592 7.11896 26.7671 7.0258 26.5685 6.90845C26.564 6.19643 26.564 5.5134 26.564 4.80204C25.2661 4.80204 24.0081 4.80204 22.7443 4.78189C22.4033 4.54658 22.0628 4.33894 21.7359 4.11169C21.6378 4.04347 21.5776 3.9206 21.5001 3.82277Z" fill="#03B7E8"/>
<path d="M7.43741 21.6789C5.76146 21.682 4.08549 21.6895 2.40956 21.6848C2.02662 21.6837 1.81334 21.4418 1.81296 21.0571C1.81196 20.0368 1.81348 19.0165 1.83883 17.9727C2.17645 18.1329 2.48924 18.3168 2.8065 18.5297C2.81096 19.2625 2.81096 19.9663 2.81096 20.6986C3.96309 20.6986 5.07528 20.6986 6.1929 20.7189C6.46448 20.9299 6.7335 21.1169 6.99567 21.3131C7.14858 21.4274 7.29053 21.5565 7.43741 21.6789Z" fill="#05EBAC"/>
<path d="M9.43762 3.82226C11.5224 3.81933 13.6073 3.81641 15.7229 3.83993C15.9487 4.01933 16.1408 4.17606 16.3393 4.32413C16.5217 4.4601 16.793 4.50515 16.7836 4.80623C14.8156 4.80772 12.8766 4.80469 10.9318 4.7816C10.5438 4.52817 10.1604 4.29652 9.77981 4.06042C9.66188 3.98727 9.55147 3.90199 9.43762 3.82226Z" fill="#04C3DA"/>
<path d="M9.40863 3.8187C9.55148 3.90291 9.66188 3.98819 9.77981 4.06135C10.1604 4.29745 10.5438 4.52909 10.9029 4.78703C8.91973 4.80863 6.95989 4.80565 4.99457 4.78234C4.96864 4.7265 4.95705 4.67429 4.92637 4.65797C4.51048 4.43676 4.09131 4.22174 3.67451 4.00222C3.57181 3.94812 3.47471 3.88337 3.37503 3.82352C5.37656 3.82042 7.3781 3.81731 9.40863 3.8187Z" fill="#04CAD2"/>
<path d="M16.8126 4.80245C16.793 4.50589 16.5217 4.46083 16.3393 4.32486C16.1408 4.1768 15.9487 4.02006 15.7519 3.84513C17.6474 3.82017 19.5447 3.81719 21.4711 3.81867C21.5776 3.92098 21.6378 4.04385 21.7359 4.11207C22.0628 4.33932 22.4032 4.54696 22.7153 4.78679C20.7322 4.80846 18.7724 4.80546 16.8126 4.80245Z" fill="#03BDE1"/>
<path d="M3.34606 3.81916C3.47469 3.88348 3.57179 3.94823 3.6745 4.00232C4.09129 4.22185 4.51047 4.43687 4.92636 4.65807C4.95703 4.67439 4.96862 4.7266 4.96556 4.78693C4.23831 4.81174 3.53458 4.81174 2.80202 4.81174C2.80202 5.56774 2.80202 6.28419 2.77929 6.99889C2.44535 6.89413 2.13414 6.79114 1.82292 6.68814C1.81946 5.91995 1.81164 5.15175 1.81449 4.38359C1.8158 4.0302 2.02819 3.83024 2.4138 3.81577C2.71449 3.80449 3.01598 3.81427 3.34606 3.81916Z" fill="#04D0CB"/>
<path d="M14 20.6982C14.0982 20.7959 14.1809 20.9214 14.2974 20.9863C14.7073 21.2147 15.1288 21.4223 15.5542 21.6575C13.9777 21.6803 12.3928 21.6833 10.7864 21.6628C10.9741 21.4572 10.9247 21.3425 10.6964 21.2051C10.4666 21.0668 10.2723 20.8696 10.0915 20.6938C11.4136 20.6923 12.7068 20.6952 14 20.6982Z" fill="#04E3B5"/>
<path d="M1.81845 6.7168C2.13415 6.7908 2.44536 6.8938 2.78379 7.02754C2.80803 8.39313 2.80505 9.72798 2.77939 11.0611C2.44545 10.9146 2.13418 10.77 1.82291 10.6253C1.81993 9.33213 1.81696 8.03896 1.81845 6.7168Z" fill="#04D7C3"/>
<path d="M1.81844 10.6543C2.13416 10.77 2.44543 10.9146 2.78385 11.0901C2.80804 12.3931 2.80508 13.6655 2.77943 14.9361C2.65149 14.8944 2.5456 14.856 2.44112 14.8141C2.23466 14.7314 2.02897 14.6467 1.82297 14.5628C1.81997 13.2696 1.81697 11.9765 1.81844 10.6543Z" fill="#04DEBA"/>
<path d="M10.0625 20.6974C10.2723 20.8688 10.4667 21.066 10.6964 21.2042C10.9247 21.3416 10.9741 21.4564 10.7574 21.6575C9.87309 21.6794 8.99622 21.6823 8.08328 21.676C8.03001 21.6608 8.01457 21.6642 8.00088 21.677C7.83166 21.6802 7.66243 21.6833 7.46531 21.6821C7.29054 21.5553 7.14858 21.4262 6.99568 21.3118C6.7335 21.1157 6.46448 20.9287 6.22189 20.7132C7.5178 20.6914 8.79014 20.6944 10.0625 20.6974Z" fill="#05E7B1"/>
<path d="M27.5565 14.2201C27.2394 14.1068 26.9268 13.9647 26.5891 13.788C26.567 12.5437 26.57 11.3339 26.594 10.1289C26.9274 10.2555 27.2398 10.3773 27.5521 10.499C27.5551 11.7297 27.558 12.9604 27.5565 14.2201Z" fill="#04C3DA"/>
<path d="M1.8185 14.5918C2.02897 14.6467 2.23466 14.7314 2.44112 14.8142C2.5456 14.856 2.65149 14.8944 2.78389 14.9651C2.80803 16.164 2.80503 17.3322 2.80202 18.5004C2.48924 18.3165 2.17645 18.1326 1.84328 17.9433C1.81995 16.8322 1.81699 15.7265 1.8185 14.5918Z" fill="#05E5B2"/>
<path d="M27.5565 10.4711C27.2398 10.3783 26.9274 10.2566 26.5896 10.1009C26.567 9.02387 26.5699 7.98069 26.5729 6.9375C26.767 7.02587 26.9592 7.11902 27.156 7.20074C27.2683 7.24731 27.3882 7.2752 27.5284 7.31199C27.5551 8.35567 27.558 9.39887 27.5565 10.4711Z" fill="#03BDE1"/>
<path d="M8.01599 21.6812C8.01455 21.6649 8.02999 21.6615 8.05419 21.6722C8.0612 21.677 8.03112 21.6847 8.01599 21.6812Z" fill="#04E3B5"/>
<path d="M26.5685 6.90914C26.57 7.98131 26.567 9.02449 26.5685 10.0967C26.57 11.3355 26.567 12.5453 26.5685 13.7842C26.573 14.4216 26.573 15.0301 26.573 15.704C25.7984 14.7894 24.9486 14.0921 23.8708 13.7215C23.4889 13.5902 23.6694 13.2907 23.6235 12.9996C23.6205 12.3579 23.6175 11.773 23.6191 11.1592C23.624 10.5679 23.5916 10.0032 23.6325 9.44383C23.7 8.51926 22.866 7.62836 21.863 7.67809C20.9205 7.72483 19.9738 7.68811 19.0337 7.68811C18.9995 7.30533 18.9968 6.94492 18.9303 6.59664C18.7664 5.73663 17.7579 5.09401 17.0642 5.11212C15.4408 5.15452 13.8156 5.1247 12.1912 5.12816C12.0848 5.12838 11.9785 5.16276 11.8485 5.18424C11.1894 5.3871 10.696 5.7684 10.5137 6.4184C10.4008 6.82092 10.415 7.2591 10.3432 7.68422C9.37729 7.68751 8.44027 7.69716 7.50352 7.6854C6.67664 7.67501 6.13858 8.07053 5.82059 8.84008C5.79293 8.97532 5.75304 9.0843 5.75292 9.19333C5.7517 10.2958 5.75699 11.3982 5.75598 12.5296C5.75447 13.7268 5.75743 14.895 5.75593 16.0922C5.75097 17.0367 5.7478 17.9523 5.75087 18.8678C5.75318 19.5568 6.48371 20.3641 7.16366 20.3695C8.98398 20.3839 10.8045 20.3687 12.625 20.3652C13.5283 20.3652 14.4316 20.3652 15.357 20.3652C15.3641 20.4784 15.3696 20.5653 15.3774 20.6896C14.9257 20.6896 14.4918 20.6896 14.029 20.6941C12.7068 20.6956 11.4137 20.6926 10.0915 20.6941C8.79015 20.6956 7.51781 20.6926 6.21647 20.6941C5.07529 20.6986 3.9631 20.6986 2.81098 20.6986C2.81098 19.9663 2.81098 19.2625 2.80651 18.5297C2.80505 17.3325 2.80805 16.1644 2.8066 14.9672C2.80511 13.6658 2.80807 12.3935 2.80655 11.0922C2.80506 9.72832 2.80804 8.39348 2.80653 7.02965C2.80203 6.2842 2.80203 5.56775 2.80203 4.81175C3.5346 4.81175 4.23833 4.81175 4.97105 4.80727C6.95989 4.80577 8.91973 4.80875 10.9086 4.80722C12.8766 4.80574 14.8156 4.80877 16.7836 4.80728C18.7724 4.80577 20.7323 4.80877 22.7211 4.80725C24.0081 4.80273 25.2661 4.80273 26.564 4.80273C26.564 5.51409 26.564 6.19712 26.5685 6.90914Z" fill="white"/>
<path d="M16.8783 15.4172C16.2852 16.0918 15.8585 16.8381 15.6019 17.6782C15.5312 17.9094 15.4924 18.1502 15.4435 18.4123C15.3895 18.7554 15.331 19.0727 15.2635 19.4395C14.0337 19.4395 12.7646 19.4395 11.4375 19.4395C10.1755 19.439 8.97124 19.4501 7.7674 19.4333C7.10879 19.4241 6.68804 19.2099 6.7415 18.4306C6.78116 17.8525 6.74301 17.2691 6.744 16.659C6.7455 15.3785 6.74251 14.127 6.74397 12.848C6.74842 12.6416 6.74842 12.4627 6.74842 12.2461C7.80861 12.953 8.82131 13.624 9.82918 14.3022C10.2876 14.6106 10.7586 14.818 11.3393 14.76C11.8125 14.7128 12.2941 14.7504 12.7827 14.7504C13.0576 15.6258 13.6515 16.1221 14.5576 16.1816C15.3884 16.2361 16.1285 15.8366 16.4271 15.1254C16.4854 15.0083 16.5438 14.8912 16.6083 14.7618C16.8953 14.7618 17.2027 14.7618 17.4845 14.7618C17.2893 14.9688 17.0873 15.183 16.8783 15.4172Z" fill="white"/>
<path d="M6.73951 16.688C6.743 17.269 6.78116 17.8524 6.7415 18.4305C6.68804 19.2099 7.10879 19.4241 7.7674 19.4333C8.97124 19.4501 10.1755 19.4389 11.4085 19.4439C11.5877 19.5824 11.7287 19.7288 11.8901 19.8474C12.1223 20.0178 12.3694 20.168 12.6176 20.3459C10.8045 20.3685 8.98397 20.3837 7.16365 20.3693C6.48371 20.3639 5.75317 19.5566 5.75086 18.8676C5.74779 17.9521 5.75097 17.0365 5.77799 16.0938C6.11618 16.2737 6.42785 16.4808 6.73951 16.688Z" fill="#04E4B4"/>
<path d="M19.27 13.2514C19.2086 13.2881 19.1634 13.311 19.1261 13.3431C18.7242 13.6895 18.2632 13.8078 17.7356 13.7569C17.385 13.7231 17.0285 13.7505 16.625 13.7505C16.625 13.5309 16.6256 13.3179 16.6248 13.1048C16.6235 12.7492 16.3888 12.5023 16.0417 12.5013C15.136 12.4989 14.2302 12.4986 13.3245 12.5015C12.9918 12.5026 12.7558 12.7446 12.7515 13.1288C12.7515 13.3657 12.7515 13.5492 12.7515 13.7274C11.2009 13.8695 10.9799 13.8213 9.9052 13.1141C9.78699 13.0363 9.67478 12.9494 9.55644 12.8718C8.67431 12.2934 7.78954 11.7191 6.91176 11.1342C6.83521 11.0832 6.75868 10.9667 6.75714 10.8793C6.7472 10.3174 6.75817 9.75511 6.78213 9.18323C6.91649 8.80332 7.19386 8.68782 7.55075 8.68734C9.07551 8.68529 10.6003 8.68098 12.154 8.68196C14.0178 8.6835 15.8527 8.68057 17.7165 8.68209C19.1178 8.68704 20.4901 8.68658 21.8623 8.68856C22.3354 8.68925 22.6232 8.97729 22.6253 9.44084C22.6269 9.79408 22.632 10.1473 22.631 10.5281C22.6811 10.9008 22.582 11.1443 22.2389 11.3063C21.9724 11.4321 21.7431 11.6365 21.4973 11.8059C21.013 12.1164 20.5278 12.4254 20.045 12.7382C19.791 12.9027 19.5414 13.0738 19.27 13.2514Z" fill="white"/>
<path d="M21.5092 11.8229C21.7431 11.6353 21.9724 11.4309 22.2389 11.3051C22.582 11.1432 22.6811 10.8996 22.6496 10.5352C22.8959 10.8669 23.234 11.0567 23.6146 11.1869C23.6175 11.7717 23.6205 12.3566 23.619 12.9704C23.3023 12.8568 22.9902 12.7143 22.6522 12.5432C22.6185 12.4499 22.6105 12.3852 22.6022 12.3172C22.5134 12.3414 22.4477 12.3592 22.3821 12.3771C22.0951 12.1984 21.8081 12.0197 21.5092 11.8229Z" fill="#04C6D6"/>
<path d="M22.373 12.3981C22.4477 12.3603 22.5134 12.3425 22.6022 12.3184C22.6105 12.3863 22.6185 12.451 22.6309 12.5393C22.6353 12.8306 22.6353 13.0983 22.6353 13.336C22.0995 13.336 21.6074 13.336 21.1153 13.336C21.1095 13.3153 21.1037 13.2946 21.0979 13.2739C21.5199 12.9887 21.9419 12.7034 22.373 12.3981Z" fill="white"/>
<path d="M6.76227 9.19189C6.75816 9.75402 6.74719 10.3163 6.75713 10.8782C6.75868 10.9656 6.83521 11.0821 6.91175 11.1331C7.78953 11.718 8.6743 12.2924 9.55643 12.8707C9.67477 12.9483 9.78698 13.0352 9.90519 13.113C10.9799 13.8202 11.2009 13.8684 12.7515 13.7263C12.7515 13.5481 12.7515 13.3646 12.7559 13.1527C13.0727 13.2669 13.3851 13.4095 13.723 13.5859C13.7619 13.936 13.729 14.2634 13.8004 14.5661C13.89 14.9457 14.2081 15.1408 14.5829 15.1809C15.0301 15.2288 15.3647 15.0268 15.5729 14.6245C15.8439 14.7875 16.1148 14.9505 16.4064 15.1189C16.1284 15.8356 15.3883 16.235 14.5576 16.1805C13.6515 16.121 13.0576 15.6248 12.7827 14.7494C12.2941 14.7494 11.8124 14.7117 11.3392 14.759C10.7585 14.8169 10.2876 14.6095 9.82916 14.3011C8.8213 13.6229 7.80859 12.9519 6.74841 12.245C6.74841 12.4616 6.74841 12.6405 6.71939 12.8468C6.38039 12.7492 6.07041 12.6243 5.76043 12.4994C5.75696 11.3969 5.75168 10.2945 5.75289 9.19206C5.75301 9.08303 5.79291 8.97405 5.8416 8.84375C6.16667 8.9456 6.46447 9.06874 6.76227 9.19189Z" fill="#04D7C3"/>
<path d="M15.5785 14.5984C15.3647 15.0265 15.0301 15.2284 14.5829 15.1806C14.2081 15.1405 13.89 14.9454 13.8004 14.5658C13.729 14.263 13.7619 13.9357 13.7441 13.5904C13.8449 13.5406 13.95 13.5031 14.0555 13.5018C14.5635 13.4955 15.0717 13.499 15.638 13.499C15.6197 13.8653 15.6019 14.219 15.5785 14.5984Z" fill="white"/>
<path d="M25.256 19.9091C25.108 20.8434 24.749 21.6451 24.0639 22.2761C23.9156 22.4128 23.7403 22.5203 23.5688 22.6608C22.94 23.0319 22.2761 23.2692 21.5619 23.2433C19.8809 23.1824 18.5074 22.0908 18.0701 20.4625C17.981 20.1305 17.9784 19.7753 17.9315 19.403C17.961 19.209 17.9905 19.0417 18.0296 18.8766C18.2415 17.9823 18.686 17.2341 19.4315 16.652C19.898 16.4314 20.3395 16.1655 20.8178 16.0419C21.8973 15.7628 22.8869 16.0265 23.782 16.686C24.6145 17.2993 25.0578 18.1415 25.2406 19.1334C25.2851 19.3748 25.25 19.6309 25.256 19.9091ZM21.6417 18.5774C21.4611 18.7973 21.2804 19.0171 21.0912 19.2473C20.7478 18.9279 20.514 18.4712 19.9933 18.3766C19.5142 18.2895 19.0222 18.5413 18.7661 19.0196C18.6741 19.3481 18.5775 19.699 18.8159 19.9857C19.3462 20.6233 19.8716 21.2732 20.4712 21.842C20.7917 22.146 21.301 22.2251 21.8011 21.7842C22.0407 21.5729 22.2318 21.3066 22.4835 21.0485C22.8858 20.5765 23.2881 20.1045 23.7296 19.6148C23.8347 19.4888 23.9405 19.3634 24.0447 19.2367C24.32 18.9018 24.5823 18.5832 24.5125 18.0834C24.4474 17.6173 24.2108 17.3386 23.7985 17.1934C23.3729 17.0436 22.9689 17.09 22.6499 17.4468C22.322 17.8136 22.0034 18.1888 21.6417 18.5774Z" fill="white"/>
<path d="M23.6191 11.1588C23.234 11.0576 22.8959 10.8678 22.6541 10.5085C22.632 10.1471 22.627 9.79383 22.6253 9.44059C22.6232 8.97704 22.3354 8.689 21.8623 8.68832C20.4901 8.68633 19.1178 8.68679 17.709 8.66276C17.442 8.48558 17.2095 8.33499 16.9818 8.17743C16.7562 8.02134 16.5354 7.85823 16.3404 7.69376C16.5101 7.68932 16.652 7.68932 16.7928 7.68932C16.7928 7.54454 16.7928 7.43736 16.7928 7.30271C16.2448 7.30271 15.7162 7.30271 15.1857 7.28065C15.1121 7.17774 15.0532 7.07731 14.9661 7.01986C14.7406 6.87127 14.4953 6.75229 14.2733 6.59926C14.1827 6.53681 14.1316 6.41698 14.0915 6.31879C15.0773 6.31381 16.0342 6.31229 16.991 6.31325C17.3911 6.31365 17.6429 6.49154 17.7497 6.88848C17.8019 7.08227 17.7877 7.29317 17.8157 7.49462C17.8257 7.56649 17.8716 7.63335 17.9012 7.7025C18.1311 6.76389 17.7546 6.05079 16.65 6.05982C15.4751 6.06942 14.3001 6.05581 13.1176 6.03329C12.928 5.88479 12.7486 5.75131 12.5631 5.62691C12.3354 5.47425 12.1027 5.32918 11.8722 5.18083C11.9785 5.16234 12.0848 5.12796 12.1912 5.12774C13.8156 5.12428 15.4408 5.1541 17.0642 5.1117C17.7579 5.09358 18.7664 5.7362 18.9303 6.59622C18.9967 6.9445 18.9995 7.30491 19.0337 7.68769C19.9738 7.68769 20.9205 7.72441 21.863 7.67767C22.866 7.62793 23.7 8.51884 23.6325 9.44341C23.5916 10.0028 23.624 10.5675 23.6191 11.1588Z" fill="#04C4D9"/>
<path d="M14.0625 6.32303C14.1316 6.41675 14.1827 6.53659 14.2733 6.59904C14.4953 6.75207 14.7406 6.87105 14.9661 7.01964C15.0532 7.07709 15.1121 7.17752 15.1567 7.28488C14.2796 7.31139 13.4297 7.31139 12.5828 7.31139C12.5828 7.45548 12.5828 7.56318 12.5828 7.69797C13.8394 7.69797 15.076 7.69797 16.3125 7.69797C16.5354 7.858 16.7562 8.02112 16.9818 8.17721C17.2095 8.33476 17.442 8.48535 17.68 8.65809C15.8527 8.6801 14.0179 8.68303 12.1452 8.66238C12.0272 8.59497 11.9469 8.55145 11.8669 8.50726C11.3686 8.2318 10.8704 7.95619 10.3721 7.68062C10.415 7.25845 10.4008 6.82028 10.5137 6.41776C10.696 5.76776 11.1894 5.38646 11.8485 5.18359C12.1027 5.32896 12.3354 5.47403 12.5631 5.62668C12.7486 5.75109 12.928 5.88457 13.0889 6.03757C12.9325 6.06159 12.7974 6.06322 12.6623 6.06237C11.6466 6.05592 11.3058 6.71462 11.3795 7.55609C11.3842 7.60902 11.4471 7.65684 11.4829 7.70704C11.5095 7.6967 11.536 7.68636 11.5626 7.67602C11.5626 7.49175 11.5571 7.30727 11.5637 7.12323C11.58 6.66908 11.899 6.31901 12.3169 6.31489C12.8987 6.30916 13.4807 6.31954 14.0625 6.32303Z" fill="#04CAD3"/>
<path d="M10.3432 7.68359C10.8704 7.9562 11.3686 8.23182 11.8669 8.50728C11.9469 8.55147 12.0272 8.59499 12.1162 8.65793C10.6003 8.68053 9.07552 8.68484 7.55076 8.68689C7.19387 8.68737 6.9165 8.80287 6.78214 9.18278C6.46448 9.06938 6.16668 8.94624 5.84784 8.81815C6.13857 8.0699 6.67663 7.67439 7.50352 7.68477C8.44026 7.69653 9.37728 7.68688 10.3432 7.68359Z" fill="#04D0CB"/>
<path d="M5.75597 12.5293C6.07043 12.6252 6.38041 12.7502 6.71496 12.8752C6.7425 14.1268 6.74549 15.3784 6.744 16.6589C6.42785 16.4807 6.11618 16.2736 5.78245 16.0646C5.75742 14.8947 5.75446 13.7265 5.75597 12.5293Z" fill="#04DDBC"/>
<path d="M22.4449 21.0655C22.2319 21.3069 22.0407 21.5731 21.8011 21.7844C21.301 22.2254 20.7917 22.1462 20.4712 21.8422C19.8716 21.2735 19.3463 20.6236 18.8159 19.9859C18.5775 19.6992 18.6741 19.3484 18.7991 19.0254C19.1137 19.1875 19.3954 19.344 19.6861 19.52C20.1582 20.0478 20.6212 20.5562 21.0823 21.0626C21.2553 20.9018 21.4053 20.7624 21.5775 20.6277C21.8815 20.7767 22.1632 20.9211 22.4449 21.0655Z" fill="#04DAC0"/>
<path d="M21.6807 18.5604C22.0034 18.1889 22.322 17.8137 22.6499 17.447C22.9689 17.0901 23.3729 17.0438 23.7985 17.1936C24.2108 17.3387 24.4474 17.6174 24.5125 18.0835C24.5823 18.5834 24.32 18.9019 24.0447 19.2368C23.9405 19.3636 23.8347 19.489 23.6978 19.6058C23.4014 19.4164 23.137 19.2361 22.8808 19.0365C23.0624 18.7098 23.4524 18.5451 23.5012 18.1556C23.4777 18.1361 23.4541 18.1166 23.4306 18.0971C23.1586 18.3982 22.8866 18.6993 22.5915 18.9986C22.2726 18.8514 21.9767 18.7059 21.6807 18.5604Z" fill="#04D2C9"/>
<path d="M21.6613 18.5687C21.9767 18.7056 22.2726 18.851 22.5901 19.0193C22.2783 19.4184 21.9358 19.7873 21.6138 20.1733C21.2526 20.6063 20.911 20.6283 20.5594 20.214C20.3552 19.9735 20.154 19.7304 19.9547 19.4859C19.8519 19.3598 19.7615 19.3366 19.677 19.5002C19.3954 19.3436 19.1137 19.187 18.8207 19.012C19.0222 18.5412 19.5142 18.2894 19.9933 18.3764C20.5141 18.471 20.7478 18.9277 21.0912 19.2471C21.2804 19.0169 21.4611 18.7971 21.6613 18.5687Z" fill="#04D7C3"/>
<path d="M22.8725 19.0547C23.137 19.235 23.4014 19.4153 23.6782 19.6135C23.2881 20.1035 22.8858 20.5755 22.4643 21.0559C22.1632 20.9199 21.8815 20.7755 21.5808 20.6046C21.9987 20.0703 22.4356 19.5625 22.8725 19.0547Z" fill="#04D7C4"/>
<path d="M14.0915 6.31865C13.4807 6.31963 12.8987 6.30925 12.3169 6.31498C11.899 6.31909 11.58 6.66916 11.5637 7.12332C11.5571 7.30736 11.5626 7.49183 11.5626 7.67611C11.536 7.68644 11.5095 7.69678 11.4829 7.70712C11.4471 7.65692 11.3842 7.6091 11.3795 7.55617C11.3058 6.7147 11.6466 6.056 12.6623 6.06245C12.7974 6.06331 12.9325 6.06167 13.0964 6.0567C14.3001 6.05567 15.4751 6.06928 16.65 6.05968C17.7546 6.05065 18.1311 6.76375 17.9012 7.70236C17.8716 7.63321 17.8257 7.56635 17.8157 7.49448C17.7877 7.29303 17.8019 7.08213 17.7497 6.88834C17.6429 6.4914 17.3911 6.31351 16.991 6.31311C16.0342 6.31215 15.0773 6.31367 14.0915 6.31865Z" fill="white"/>
<path d="M16.3404 7.69378C15.0759 7.69822 13.8393 7.69822 12.5828 7.69822C12.5828 7.56343 12.5828 7.45573 12.5828 7.31164C13.4297 7.31164 14.2796 7.31164 15.1586 7.30719C15.7162 7.30273 16.2448 7.30273 16.7928 7.30273C16.7928 7.43738 16.7928 7.54457 16.7928 7.68934C16.652 7.68934 16.5101 7.68934 16.3404 7.69378Z" fill="white"/>
<path d="M22.8808 19.0351C22.4356 19.5622 21.9987 20.07 21.5586 20.5997C21.4053 20.7609 21.2554 20.9002 21.0823 21.061C20.6212 20.5546 20.1582 20.0462 19.6862 19.5184C19.7615 19.3354 19.8519 19.3586 19.9547 19.4848C20.154 19.7293 20.3552 19.9723 20.5594 20.2129C20.911 20.6272 21.2526 20.6052 21.6138 20.1722C21.9358 19.7862 22.2783 19.4173 22.6131 19.0199C22.8866 18.6979 23.1586 18.3968 23.4306 18.0957C23.4541 18.1152 23.4777 18.1346 23.5013 18.1541C23.4524 18.5436 23.0624 18.7083 22.8808 19.0351Z" fill="white"/>
</g>
<defs>
<clipPath id="clip0_2023_950">
<rect width="32" height="32" fill="white"/>
</clipPath>
</defs>
</svg>
